<svg xmlns="http://www.w3.org/2000/svg" shape-rendering="geometricPrecision" text-rendering="geometricPrecision" image-rendering="optimizeQuality" fill-rule="evenodd" clip-rule="evenodd" viewBox="0 0 512 366.263"><path fill="#464646" d="M161.325 315.584h105.598c.279 18.262 7.808 34.642 28.195 47.502H133.131c16.311-11.815 28.263-26.174 28.194-47.502zM11.64 0h404.968c6.413 0 11.64 5.229 11.64 11.641v276.236c0 6.413-5.227 11.642-11.64 11.642H11.64C5.227 299.519 0 294.29 0 287.877V11.641C0 5.229 5.227 0 11.64 0z"/><path fill="#6CC0EF" d="M25.057 16.136h378.169c5.681 0 10.28 4.636 10.28 10.282V245.29c0 5.646-4.634 10.282-10.28 10.282H25.057c-5.645 0-10.28-4.636-10.28-10.282V26.418c-.035-5.674 4.627-10.282 10.28-10.282z"/><path fill="#7BC6F1" d="M25.057 16.136h378.169c5.681 0 10.28 4.636 10.28 10.282v212.297c0 5.646-4.634 10.282-10.28 10.282C275.83 236.453 144.504 141.339 14.777 26.418c-.035-5.674 4.627-10.282 10.28-10.282z"/><path fill="#A3ABB3" d="M351.364 43.657h144.663c7.039 0 12.796 5.765 12.796 12.796v189.291c-20.858 0-43.22-5.108-65.416-10.178-37.518-8.569-74.59-17.038-104.838-1.409V56.453c0-7.039 5.756-12.796 12.795-12.796z"/><path fill="#464646" fill-rule="nonzero" d="M351.364 40.481h144.663C504.8 40.481 512 47.68 512 56.453v293.838c0 8.784-7.188 15.972-15.973 15.972H351.364c-8.772 0-15.972-7.2-15.972-15.972V56.453c0-8.78 7.191-15.972 15.972-15.972zm144.663 6.353H351.364c-5.288 0-9.619 4.329-9.619 9.619v293.838c0 5.293 4.326 9.619 9.619 9.619h144.663c5.279 0 9.62-4.341 9.62-9.619V56.453c0-5.293-4.326-9.619-9.62-9.619z"/><path fill="#4D4D4D" fill-rule="nonzero" d="M362.104 76.993h123.183c1.449 0 2.769.595 3.72 1.545a5.261 5.261 0 011.545 3.72v24.124a5.261 5.261 0 01-1.545 3.72 5.257 5.257 0 01-3.72 1.545H362.104a5.255 5.255 0 01-3.719-1.545 5.257 5.257 0 01-1.545-3.72V82.258a5.277 5.277 0 015.264-5.265z"/><rect fill="#6B747E" x="359.469" y="79.623" width="128.452" height="29.394" rx="2.636" ry="2.636"/><path fill="#313131" d="M455.81 92.062h25.005v10.025H455.81z"/><path fill="#6B747E" d="M505.647 350.291v-98.232c-20.575-.472-42.19-5.411-63.654-10.312-36.254-8.281-72.081-16.462-100.248-2.101v110.645c0 5.28 4.339 9.619 9.619 9.619h144.663c5.275 0 9.62-4.344 9.62-9.619z"/><path fill="#464646" fill-rule="nonzero" d="M512 248.92v101.371c0 8.781-7.191 15.972-15.973 15.972H351.364c-8.786 0-15.972-7.186-15.972-15.972v-114.42l1.663-.909c30.521-16.718 68.207-8.109 106.352.604 22.196 5.07 44.558 10.178 65.416 10.178H512v3.176zm-6.353 101.371v-98.232c-20.575-.472-42.19-5.411-63.654-10.312-36.254-8.281-72.081-16.462-100.248-2.101v110.645c0 5.28 4.339 9.619 9.619 9.619h144.663c5.275 0 9.62-4.344 9.62-9.619z"/><path fill="#464646" fill-rule="nonzero" d="M411.025 273.478c3.25-3.247 7.731-5.26 12.672-5.26 4.937 0 9.42 2.013 12.669 5.26l.024.023c3.248 3.25 5.26 7.735 5.26 12.672 0 4.939-2.012 9.421-5.26 12.67l-.024.023c-3.249 3.248-7.732 5.26-12.669 5.26s-9.422-2.012-12.672-5.26l-.023-.023c-3.248-3.249-5.26-7.731-5.26-12.67 0-4.937 2.012-9.422 5.26-12.672l.023-.023zm9.508 40.608a3.162 3.162 0 016.324 0v16.68a3.162 3.162 0 01-6.324 0v-16.68z"/><path fill="#DD3E46" d="M423.697 274.252c-6.584 0-11.922 5.338-11.922 11.921 0 6.582 5.338 11.92 11.922 11.92 6.581 0 11.919-5.338 11.919-11.92 0-6.583-5.338-11.921-11.919-11.921z"/></svg>